<svg version="1.2" baseProfile="tiny-ps" xmlns="http://www.w3.org/2000/svg" viewBox="0 0 674 135" width="400" height="80">
	<title>Logo color-svg</title>
	<style>
		tspan { white-space:pre }
		.s0 { fill: #ff784e } 
		.s1 { fill: #515578 } 
		.s2 { fill: #1d1d42 } 
	</style>
	<path id="Layer" class="s0" d="m236.73 44.06v8.59h-22.63v13.61h17.34v8.44h-17.34v22.43h-10.89v-53.07h33.52z" />
	<path id="Layer" class="s0" d="m255.34 61.54c1.4-2.23 3.21-3.98 5.44-5.25c2.28-1.27 4.87-1.9 7.78-1.9v11.18h-2.88c-3.42 0-6.01 0.79-7.78 2.36c-1.71 1.57-2.57 4.31-2.57 8.21v20.98h-10.89v-42.12h10.89v6.54z" />
	<path id="Layer" fill-rule="evenodd" class="s0" d="m295.02 97.81c-4.15 0-7.88-0.89-11.2-2.66c-3.32-1.82-5.94-4.38-7.85-7.68c-1.87-3.29-2.8-7.1-2.8-11.4c0-4.31 0.96-8.11 2.88-11.4c1.97-3.29 4.64-5.83 8.01-7.6c3.37-1.82 7.13-2.74 11.28-2.74c4.15 0 7.91 0.91 11.28 2.74c3.37 1.77 6.01 4.31 7.93 7.6c1.97 3.29 2.95 7.1 2.95 11.4c0 4.31-1.01 8.11-3.03 11.4c-1.97 3.29-4.67 5.85-8.09 7.68c-3.37 1.77-7.16 2.66-11.36 2.66zm0-9.28c1.97 0 3.81-0.46 5.52-1.37c1.76-0.96 3.16-2.38 4.2-4.26c1.04-1.88 1.56-4.16 1.56-6.84c0-4-1.09-7.07-3.27-9.2c-2.13-2.18-4.74-3.27-7.85-3.27c-3.11 0-5.73 1.09-7.86 3.27c-2.07 2.13-3.11 5.2-3.11 9.2c0 4 1.01 7.1 3.03 9.28c2.07 2.13 4.67 3.19 7.78 3.19z" />
	<path id="Layer" class="s0" d="m349.36 54.4c5.13 0 9.28 1.6 12.44 4.79c3.16 3.14 4.74 7.55 4.74 13.23v24.71h-10.89v-23.27c0-3.35-0.86-5.9-2.57-7.68c-1.71-1.82-4.04-2.74-7-2.74c-3.01 0-5.39 0.91-7.15 2.74c-1.71 1.77-2.57 4.33-2.57 7.68v23.27h-10.89v-42.12h10.89v5.25c1.45-1.82 3.29-3.24 5.52-4.26c2.28-1.06 4.77-1.6 7.47-1.6z" />
	<path id="Layer" class="s0" d="m389.58 63.75v20.38c0 1.42 0.34 2.46 1.01 3.12c0.73 0.61 1.92 0.91 3.58 0.91h5.06v8.97h-6.84c-9.18 0-13.76-4.36-13.76-13.08v-20.3h-5.13v-8.74h5.13v-10.42h10.96v10.42h9.64v8.74h-9.64z" />
	<path id="Layer" class="s0" d="m412.57 49.99c-1.92 0-3.53-0.58-4.82-1.75c-1.24-1.22-1.87-2.71-1.87-4.49c0-1.77 0.62-3.24 1.87-4.41c1.3-1.22 2.9-1.82 4.82-1.82c1.92 0 3.5 0.61 4.74 1.82c1.3 1.17 1.94 2.64 1.94 4.41c0 1.77-0.65 3.27-1.94 4.49c-1.24 1.17-2.83 1.75-4.74 1.75zm5.37 5.02v42.12h-10.89v-42.12h10.89z" />
	<path id="Layer" fill-rule="evenodd" class="s0" d="m468.75 75.15c0 1.52-0.1 2.89-0.31 4.11h-31.5c0.26 3.04 1.35 5.42 3.27 7.15c1.92 1.72 4.28 2.58 7.08 2.58c4.04 0 6.92-1.7 8.63-5.09h11.74c-1.24 4.05-3.63 7.4-7.15 10.04c-3.53 2.58-7.86 3.88-12.99 3.88c-4.15 0-7.88-0.89-11.2-2.66c-3.27-1.82-5.83-4.38-7.7-7.68c-1.81-3.29-2.72-7.1-2.72-11.4c0-4.36 0.91-8.19 2.72-11.48c1.81-3.29 4.36-5.83 7.62-7.6c3.27-1.77 7.03-2.66 11.28-2.66c4.1 0 7.75 0.86 10.97 2.59c3.27 1.72 5.78 4.18 7.54 7.37c1.81 3.14 2.72 6.77 2.72 10.87zm-11.28-3.04c-0.05-2.74-1.06-4.92-3.03-6.54c-1.97-1.67-4.38-2.51-7.23-2.51c-2.7 0-4.98 0.81-6.84 2.43c-1.81 1.57-2.93 3.78-3.34 6.61h20.45z" />
	<path id="Layer" class="s0" d="m487.59 61.54c1.4-2.23 3.21-3.98 5.44-5.25c2.28-1.27 4.87-1.9 7.78-1.9v11.18h-2.88c-3.42 0-6.01 0.79-7.78 2.36c-1.71 1.57-2.57 4.31-2.57 8.21v20.98h-10.89v-42.12h10.89v6.54z" />
	<path id="Layer" class="s0" d="m519.26 88.15h24.42v8.97h-37.02v-8.21l24.26-35.89h-24.26v-8.97h37.02v8.21l-24.42 35.89z" />
	<path id="Layer" fill-rule="evenodd" class="s0" d="m593 75.15c0 1.52-0.1 2.89-0.31 4.11h-31.5c0.26 3.04 1.35 5.42 3.27 7.15c1.92 1.72 4.28 2.58 7.08 2.58c4.04 0 6.92-1.7 8.63-5.09h11.74c-1.25 4.05-3.63 7.4-7.15 10.04c-3.53 2.58-7.86 3.88-12.99 3.88c-4.15 0-7.88-0.89-11.2-2.66c-3.27-1.82-5.83-4.38-7.7-7.68c-1.82-3.29-2.72-7.1-2.72-11.4c0-4.36 0.91-8.19 2.72-11.48c1.81-3.29 4.35-5.83 7.62-7.6c3.27-1.77 7.02-2.66 11.28-2.66c4.1 0 7.75 0.86 10.97 2.59c3.27 1.72 5.78 4.18 7.54 7.37c1.82 3.14 2.72 6.77 2.72 10.87zm-11.28-3.04c-0.05-2.74-1.06-4.92-3.03-6.54c-1.97-1.67-4.38-2.51-7.23-2.51c-2.7 0-4.98 0.81-6.84 2.43c-1.81 1.57-2.93 3.78-3.34 6.61h20.45z" />
	<path id="Layer" class="s0" d="m611.84 61.54c1.4-2.23 3.21-3.98 5.44-5.25c2.28-1.27 4.87-1.9 7.78-1.9v11.18h-2.88c-3.42 0-6.01 0.79-7.78 2.36c-1.71 1.57-2.57 4.31-2.57 8.21v20.98h-10.89v-42.12h10.89v6.54z" />
	<path id="Layer" fill-rule="evenodd" class="s0" d="m651.52 97.81c-4.15 0-7.88-0.89-11.2-2.66c-3.32-1.82-5.94-4.38-7.86-7.68c-1.87-3.29-2.8-7.1-2.8-11.4c0-4.31 0.96-8.11 2.88-11.4c1.97-3.29 4.64-5.83 8.01-7.6c3.37-1.82 7.13-2.74 11.28-2.74c4.15 0 7.91 0.91 11.28 2.74c3.37 1.77 6.01 4.31 7.93 7.6c1.97 3.29 2.96 7.1 2.96 11.4c0 4.31-1.01 8.11-3.03 11.4c-1.97 3.29-4.67 5.85-8.09 7.68c-3.37 1.77-7.15 2.66-11.36 2.66zm0-9.28c1.97 0 3.81-0.46 5.52-1.37c1.76-0.96 3.16-2.38 4.2-4.26c1.04-1.88 1.56-4.16 1.56-6.84c0-4-1.09-7.07-3.27-9.2c-2.13-2.18-4.74-3.27-7.86-3.27c-3.11 0-5.73 1.09-7.85 3.27c-2.07 2.13-3.11 5.2-3.11 9.2c0 4 1.01 7.1 3.03 9.28c2.07 2.13 4.67 3.19 7.78 3.19z" />
	<path id="Layer" fill-rule="evenodd" class="s1" d="m169.86 88.56l-84.93 46.44l-84.93-46.44h84.93v0h84.93z" />
	<path id="Layer" class="s0" d="m90.21 1.67v9.84l6.85 1.88v-9.84l7.71 2.51v10.47l7.71 2.09v-10.05l8.14 2.93v9.63l7.28 1.88v-8.79l4.85 1.76v92.87l-47.81 25.83v-134.69l5.28 1.67z" />
	<path id="Layer" class="s2" d="m84.93 0v134.69l-47.81-25.83v-92.87l4.85-1.76v8.79l7.28-1.88v-9.63l8.14-2.93v10.05l7.71-2.09v-10.47l7.71-2.51v9.84l6.85-1.88v-9.84l5.28-1.67z" />
</svg>